<svg t="1706839614541" class="icon" viewBox="0 0 1024 1024" version="1.1" xmlns="http://www.w3.org/2000/svg" p-id="43007" width="200" height="200"><path d="M512 0C229.376 0 0 229.376 0 512s229.376 512 512 512 512-229.376 512-512-229.376-512-512-512z m0 960A448 448 0 1 1 512 64a448 448 0 0 1 0 896z" fill="#ffffff" p-id="43008"></path><path d="M256 311.296c19.968 13.312 39.424 27.136 56.832 40.96 17.92 13.824 34.304 27.136 49.152 40.96 14.848 13.312 27.648 13.824 37.376 1.536 9.216-11.264 7.68-22.016-4.608-33.28a809.910857 809.910857 0 0 0-54.272-44.032 1048.868571 1048.868571 0 0 0-56.832-39.424c-9.216-6.144-16.384-8.192-21.504-7.68a22.381714 22.381714 0 0 0-13.824 9.216c-8.704 11.776-6.144 22.528 7.68 31.744z m511.488 424.448c-37.888-18.432-72.192-47.616-102.4-88.064-30.208-40.448-55.296-93.184-74.752-158.72 1.024-8.704 1.536-17.408 2.048-26.112 0.512-8.704 1.024-17.408 1.024-26.624V332.8h109.568c9.216 0 14.848 1.536 16.896 4.096 2.048 2.56 1.536 10.24-2.048 22.016a412.013714 412.013714 0 0 1-18.944 49.152 364.178286 364.178286 0 0 1-30.72 54.272c-6.144 9.216-9.216 16.384-9.728 22.528-0.512 5.632 3.072 11.264 10.24 16.384 13.312 9.728 26.112 6.144 37.376-10.752 14.336-20.992 26.624-43.008 36.352-66.048a457.142857 457.142857 0 0 0 24.576-70.144c5.632-20.992 4.608-37.376-2.048-49.152-7.168-11.776-21.504-17.408-43.008-17.408H501.248a28.379429 28.379429 0 0 0 1.536-8.704l1.536-8.704c2.56-13.312 2.048-22.528-0.512-28.16-2.56-5.632-8.704-9.216-17.92-9.728-9.216-1.024-15.872 1.024-19.456 6.144-4.096 4.608-6.656 13.312-8.192 25.088a468.992 468.992 0 0 1-27.136 108.032 346.697143 346.697143 0 0 1-48.64 83.968c-7.68 10.24-12.288 18.432-13.312 25.088-1.024 6.144 1.536 12.288 7.168 17.408 13.312 11.776 27.136 8.704 40.448-9.728 16.896-22.528 30.72-46.08 43.008-71.168 11.776-24.576 22.016-52.736 30.72-83.456h56.32v114.688a310.052571 310.052571 0 0 1-53.248 175.104 307.2 307.2 0 0 1-63.488 68.096 363.227429 363.227429 0 0 1-84.48 49.664c-12.8 5.632-21.504 10.752-26.112 15.872s-5.632 11.776-2.56 19.968c3.072 9.216 8.192 13.824 15.36 14.848 7.168 1.024 17.408-1.536 31.232-7.168 53.248-22.016 96.768-51.2 131.584-87.552a331.922286 331.922286 0 0 0 76.8-126.976c16.896 48.128 39.424 89.088 68.096 123.392 28.672 34.304 64.512 63.488 106.496 87.04 22.016 11.776 36.352 9.728 43.52-6.656 3.072-7.168 3.584-13.824 0.512-19.456-2.048-6.656-10.24-12.288-23.04-18.944z" fill="#ffffff" p-id="43009"></path><path d="M457.728 541.696c14.336-15.36 14.848-28.672 1.536-39.424-6.656-5.632-13.312-7.68-18.944-6.144-6.144 1.536-12.8 7.168-19.968 15.872a499.565714 499.565714 0 0 1-162.816 127.488c-11.776 5.632-19.968 11.776-23.552 18.944a22.381714 22.381714 0 0 0-1.024 20.48c4.096 7.68 9.216 12.288 15.36 13.824 6.144 1.024 14.848-1.536 26.624-7.68 36.864-19.968 70.144-40.96 99.328-64a639.926857 639.926857 0 0 0 83.456-79.36z" fill="#ffffff" p-id="43010"></path></svg>