<svg t="1706839353316" class="icon" viewBox="0 0 1024 1024" version="1.1" xmlns="http://www.w3.org/2000/svg" p-id="26116" width="200" height="200"><path d="M340.63 638.27c-17.26 0-31.24 13.99-31.24 31.24s13.98 31.24 31.24 31.24h186.58c17.26 0 31.24-13.99 31.24-31.24s-13.98-31.24-31.24-31.24H340.63zM641.77 445.92c0-17.25-13.98-31.24-31.24-31.24h-269.9c-17.26 0-31.24 13.99-31.24 31.24s13.98 31.24 31.24 31.24h269.89c17.26 0.01 31.25-13.99 31.25-31.24z" fill="#ffffff" p-id="26117"></path><path d="M798.43 814.95c-17.26 0-31.24 13.99-31.24 31.24v51.32H183.97V189.32h88.8c12.99 36.19 47.64 62.14 88.25 62.14h229.12c40.61 0 75.26-25.95 88.25-62.14h88.8V362.6c0 17.25 13.98 31.24 31.24 31.24 17.26 0 31.24-13.99 31.24-31.24V158.08c0-17.25-13.98-31.24-31.24-31.24h-119.8C665.84 90.28 631.01 64 590.14 64H361.02c-40.86 0-75.7 26.28-88.49 62.83h-119.8c-17.26 0-31.24 13.99-31.24 31.24v770.68c0 17.25 13.98 31.24 31.24 31.24h645.7c17.26 0 31.24-13.99 31.24-31.24v-82.56c0.01-17.25-13.98-31.24-31.24-31.24zM361.02 126.49h229.12c17.23 0 31.24 14.01 31.24 31.24s-14.01 31.24-31.24 31.24H361.02c-17.23 0-31.24-14.01-31.24-31.24s14.01-31.24 31.24-31.24z" fill="#ffffff" p-id="26118" class="default_pointer_cs"></path><path d="M891.34 481.64c-13.23-11.09-32.92-9.36-44.02 3.89L642.44 730.07c-11.08 13.22-9.34 32.93 3.89 44 5.85 4.9 12.97 7.3 20.05 7.3 8.93 0 17.79-3.8 23.97-11.19l204.88-244.54c11.07-13.22 9.33-32.93-3.89-44z" fill="#ffffff" p-id="26119"></path></svg>