<svg t="1706839434696" class="icon" viewBox="0 0 1024 1024" version="1.1" xmlns="http://www.w3.org/2000/svg" p-id="29797" width="200" height="200"><path d="M50.18 844.66q-21.35 0-35.76 12.28Q0.01 869.22 0.01 890.57q0 21.34 14.41 33.63 14.41 12.28 35.76 13.34h181.47v36.3q1.07 21.35 13.35 35.22 12.27 13.88 33.63 13.88 21.35 0 33.63-13.88 12.27-13.88 12.27-35.22v-37.36h515.6q21.35 0 35.76-12.28 14.41-12.28 14.41-33.63t-14.41-33.63q-14.41-12.28-35.76-12.28h-515.6v-33.09q0-21.35-12.27-35.23-12.28-13.88-33.63-13.88t-33.63 13.88q-12.28 13.88-13.35 35.23v33.09H50.18z m789.94-213.49q21.35-1.07 35.23-17.61 13.88-16.55 13.88-38.43t-13.88-38.43q-13.88-16.54-35.23-16.54H621.28v-22.42q0-21.35-12.81-35.76-12.8-14.41-33.63-14.41-20.82 0-33.63 14.41-12.81 14.41-12.81 35.76v22.42H50.17q-21.35 0-35.76 16.54Q0 553.25 0 575.13t14.41 38.43q14.41 16.54 35.76 17.61h478.23v27.75q0 21.35 12.81 35.76 12.81 14.41 33.63 14.41t33.63-14.41q12.81-14.41 12.81-35.76v-27.75h218.84zM418.46 316.26q21.35-1.07 35.76-15.48 14.41-14.41 14.41-35.76 0-21.35-14.41-35.76-14.41-14.41-35.76-15.48H348.01v-29.89q0-21.35-12.27-35.76-12.28-14.41-33.63-14.41t-33.63 14.41q-12.28 14.41-12.28 35.76v29.89H50.17q-21.35 1.07-35.23 15.48-13.88 14.41-13.88 35.76 0 21.35 13.88 35.76 13.88 14.41 35.23 15.48h206.03v28.82q0 21.35 12.28 35.76 12.27 14.41 33.63 14.41 21.35 0 33.63-14.41Q348.01 366.43 348.01 345.08v-28.82h70.45z m593.52-159.06q13.88-8.54 11.75-23.48-5.34-14.94-11.75-28.82-10.67-12.81-25.62-8.54l-8.54 2.13q-23.48 6.41-41.09-11.2-17.62-17.61-12.27-41.09l2.13-9.61q4.27-14.95-8.54-24.55Q904.18 4.56 890.3 0.29q-7.47-1.06-13.88 2.14-6.4 3.2-10.67 9.61l-4.27 8.54q-12.81 20.28-37.37 20.28-24.56 0-37.37-21.35l-4.27-7.47Q773.93-1.84 757.92 0.29l-13.87 5.34-13.88 6.41q-12.81 9.6-8.54 24.55l2.13 9.61q6.41 22.41-10.67 41.63-8.54 8.54-19.75 11.21-11.21 2.67-21.88-0.54l-9.61-2.13q-14.95-3.2-24.55 8.54-4.27 6.4-6.94 13.88-2.67 7.47-4.81 14.94-2.13 14.94 11.75 23.48l7.47 4.27q21.35 12.81 21.35 37.36 0 24.56-21.35 37.37l-7.47 5.34q-13.88 7.47-11.75 23.48 4.27 14.94 11.75 28.82 9.6 11.74 24.55 8.54l9.61-3.2q22.41-5.34 40.56 12.27 18.15 17.62 11.74 41.1l-2.13 8.54q-4.27 16.02 8.54 25.62l13.88 6.41q7.47 3.2 14.94 5.34 14.94 2.13 23.48-11.75l4.27-8.54q12.81-20.28 37.37-20.28 24.55 0 37.37 20.28l4.27 8.54q8.54 13.88 24.55 11.75 14.94-5.34 27.75-11.75 12.81-9.6 9.61-25.62l-3.2-8.54q-5.34-23.48 11.74-41.1t41.63-12.27l8.54 3.2q14.95 3.2 25.62-8.54 6.41-13.88 11.75-28.82 1.06-16.01-11.75-23.48l-8.54-4.27q-20.28-13.88-20.28-38.44 0-24.55 20.28-37.36l8.54-4.27zM824.11 93.16q44.83 2.13 73.65 32.02 28.82 29.89 28.82 74.19t-28.82 73.65q-28.82 29.36-73.65 31.5-28.83 1.06-53.38-12.81-24.55-13.88-39.5-38.96-14.94-25.09-14.94-53.38 0-28.29 14.94-53.38 14.95-25.09 39.5-38.96 24.55-13.88 53.38-13.88z" fill="#ffffff" p-id="29798" class="default_pointer_cs"></path></svg>