<svg t="1706839753458" class="icon" viewBox="0 0 1024 1024" version="1.1" xmlns="http://www.w3.org/2000/svg" p-id="45300" width="200" height="200"><path d="M512.124726 0.62363C289.114738-1.247259 105.268697 178.98173 103.397808 401.991717c0 235.981486 365.94592 592.57296 382.659196 609.286237 7.483557 7.483557 16.713276 11.100609 26.067722 11.100609 11.100609 0 20.455055-5.612667 27.813885-12.971498l126.347382-143.060658c169.003654-202.430207 254.565652-334.390256 254.565651-464.479416C918.856029 178.98173 735.009988-1.247259 512.124726 0.62363z m0 728.274787c-182.099878-5.612667-325.160536-156.032156-319.547869-338.132035 5.612667-182.099878 156.032156-325.160536 338.132035-321.418757 178.3581 5.612667 319.547868 150.419488 319.547868 328.777588-1.995615 185.841657-154.285993 332.644093-338.132034 330.773204z m0 0" fill="#d81e06" p-id="45301"></path><path d="M492.667479 548.170524c77.704263 1.122533 156.53106 0.374178 236.729841-2.120341-4.61486 10.726431-9.104994 21.577588-13.22095 32.553471-85.686724 1.122533-161.894275 1.122533-228.872107 0-43.030451-1.122533-75.583922-17.336906-97.535688-48.518392-16.463825 14.218758-33.800731 32.428745-51.885993 54.380511l-17.711084-34.549086c15.964921-14.592935 34.174909-30.43313 54.75469-47.770037V361.705238h-52.759075v-30.058953H407.853837v176.237759c20.330329 25.568819 48.643118 38.914495 84.813642 40.28648zM365.94592 190.456516c16.962728 20.579781 38.041413 47.021681 62.986601 79.450427l-29.684774 19.332521c-23.0743-34.050183-42.531547-60.990987-58.496468-80.697686l25.194641-18.085262z m135.826553 9.104994l32.553471 13.22095c-25.568819 52.135445-51.511815 102.150548-77.828989 149.795859 24.945189 43.903532 51.761267 91.798295 80.323508 143.684288L506.387333 523.599513c-26.940804-56.500853-54.754689-110.008283-83.566383-160.52229 33.925457-62.986602 60.242631-117.491839 78.951523-163.515713z m86.060901 3.617053l32.553471 13.22095c-20.829233 42.780999-46.398051 91.548843-76.581729 146.178806 24.695737 42.531547 50.888185 89.17905 78.577344 139.942509l-30.43313 17.336906c-27.68916-57.623386-55.004141-109.758831-81.944945-156.406333 33.177101-61.48989 59.120097-114.872594 77.828989-160.272838z m88.056516 0.873081l32.553472 13.22095c-21.951766 44.152984-47.271133 92.54665-75.708648 144.931547 26.067722 46.148599 52.260171 92.671376 78.577344 139.568332l-30.43313 17.336906c-23.0743-49.391474-50.389281-101.651644-81.944945-156.905238 34.050183-63.485505 59.743727-116.119854 76.955907-158.152497z" fill="#d81e06" p-id="45302"></path></svg>